<svg width="37" height="36" viewBox="0 0 37 36" fill="none" xmlns="http://www.w3.org/2000/svg">
<path d="M10.7335 0C4.95301 0 0.250977 4.70638 0.250977 10.4883V25.4675C0.250977 31.248 4.95736 35.95 10.7393 35.95H25.7185C31.4989 35.95 36.201 31.2436 36.201 25.4617V10.4825C36.201 4.70203 31.4946 0 25.7126 0H10.7335ZM28.7114 5.99167C29.5382 5.99167 30.2093 6.66273 30.2093 7.48958C30.2093 8.31643 29.5382 8.9875 28.7114 8.9875C27.8845 8.9875 27.2135 8.31643 27.2135 7.48958C27.2135 6.66273 27.8845 5.99167 28.7114 5.99167ZM18.226 8.9875C23.1826 8.9875 27.2135 13.0184 27.2135 17.975C27.2135 22.9316 23.1826 26.9625 18.226 26.9625C13.2694 26.9625 9.23848 22.9316 9.23848 17.975C9.23848 13.0184 13.2694 8.9875 18.226 8.9875ZM18.226 11.9833C16.6369 11.9833 15.1129 12.6146 13.9892 13.7383C12.8656 14.8619 12.2343 16.3859 12.2343 17.975C12.2343 19.5641 12.8656 21.0881 13.9892 22.2117C15.1129 23.3354 16.6369 23.9667 18.226 23.9667C19.8151 23.9667 21.3391 23.3354 22.4627 22.2117C23.5864 21.0881 24.2176 19.5641 24.2176 17.975C24.2176 16.3859 23.5864 14.8619 22.4627 13.7383C21.3391 12.6146 19.8151 11.9833 18.226 11.9833Z" fill="black"/>
</svg>
