<svg width="37" height="36" viewBox="0 0 37 36" fill="none" xmlns="http://www.w3.org/2000/svg">
<path d="M32.8827 0H3.46911C1.66344 0 0.200928 1.46251 0.200928 3.26818V32.6818C0.200928 34.4875 1.66344 35.95 3.46911 35.95H32.8827C34.6884 35.95 36.1509 34.4875 36.1509 32.6818V3.26818C36.1509 1.46251 34.6868 0 32.8827 0ZM30.7405 15.4814C30.528 15.501 30.314 15.5141 30.0983 15.5141C27.6553 15.5141 25.5081 14.2591 24.258 12.3586C24.258 17.341 24.258 23.0113 24.258 23.106C24.258 27.4936 20.7006 31.0494 16.3147 31.0494C11.9288 31.0477 8.37138 27.4903 8.37138 23.1044C8.37138 18.7169 11.9288 15.1611 16.3147 15.1611C16.4814 15.1611 16.6432 15.1758 16.8049 15.1856V19.1009C16.6415 19.0813 16.483 19.0519 16.3147 19.0519C14.076 19.0519 12.2605 20.8673 12.2605 23.106C12.2605 25.3448 14.0744 27.1602 16.3147 27.1602C18.555 27.1602 20.5323 25.3954 20.5323 23.1567C20.5323 23.0668 20.5715 4.90391 20.5715 4.90391H24.3119C24.6633 8.24889 27.3644 10.8896 30.7405 11.1314V15.4814Z" fill="black"/>
</svg>
