<svg width="25" height="26" viewBox="0 0 25 26" fill="none" xmlns="http://www.w3.org/2000/svg">
<path d="M12.1664 0.796327C12.2133 0.401224 12.7867 0.401224 12.8336 0.796327L13.2269 4.11088C13.7347 8.39086 17.1091 11.7653 21.3891 12.2731L24.7036 12.6664C25.0988 12.7133 25.0988 13.2867 24.7036 13.3336L21.3891 13.7269C17.1091 14.2347 13.7347 17.6091 13.2269 21.8891L12.8336 25.2036C12.7867 25.5988 12.2133 25.5988 12.1664 25.2036L11.7731 21.8891C11.2653 17.6091 7.89086 14.2347 3.61088 13.7269L0.296327 13.3336C-0.0987756 13.2867 -0.0987756 12.7133 0.296327 12.6664L3.61088 12.2731C7.89086 11.7653 11.2653 8.39086 11.7731 4.11088L12.1664 0.796327Z" fill="white"/>
</svg>
