<svg width="70" height="70" viewBox="0 0 70 70" fill="none" xmlns="http://www.w3.org/2000/svg">
<path d="M34.3328 10.5927C34.4267 9.80245 35.5733 9.80245 35.6672 10.5927L36.4537 17.2218C37.4694 25.7817 44.2183 32.5306 52.7782 33.5463L59.4073 34.3328C60.1976 34.4267 60.1976 35.5733 59.4073 35.6672L52.7782 36.4537C44.2183 37.4694 37.4694 44.2183 36.4537 52.7782L35.6672 59.4073C35.5733 60.1976 34.4267 60.1976 34.3328 59.4073L33.5463 52.7782C32.5306 44.2183 25.7817 37.4694 17.2218 36.4537L10.5927 35.6672C9.80245 35.5733 9.80245 34.4267 10.5927 34.3328L17.2218 33.5463C25.7817 32.5306 32.5306 25.7817 33.5463 17.2218L34.3328 10.5927Z" fill="white"/>
</svg>
