<svg width="26" height="25" viewBox="0 0 26 25" fill="none" xmlns="http://www.w3.org/2000/svg">
<path d="M12.6664 0.296327C12.7133 -0.0987756 13.2867 -0.0987756 13.3336 0.296327L13.7269 3.61088C14.2347 7.89086 17.6091 11.2653 21.8891 11.7731L25.2036 12.1664C25.5988 12.2133 25.5988 12.7867 25.2036 12.8336L21.8891 13.2269C17.6091 13.7347 14.2347 17.1091 13.7269 21.3891L13.3336 24.7036C13.2867 25.0988 12.7133 25.0988 12.6664 24.7036L12.2731 21.3891C11.7653 17.1091 8.39086 13.7347 4.11088 13.2269L0.796327 12.8336C0.401224 12.7867 0.401224 12.2133 0.796327 12.1664L4.11088 11.7731C8.39086 11.2653 11.7653 7.89086 12.2731 3.61088L12.6664 0.296327Z" fill="white"/>
</svg>
